<svg width="200" height="200" viewBox="0 0 200 200" xmlns="http://www.w3.org/2000/svg">
  <!-- Define gradients -->
  <defs>
    <linearGradient id="bgGradient" x1="0%" y1="0%" x2="100%" y2="100%">
      <stop offset="0%" stop-color="#17172B" />
      <stop offset="100%" stop-color="#0F0F1A" />
    </linearGradient>
    <linearGradient id="barGradient" x1="0%" y1="0%" x2="100%" y2="100%">
      <stop offset="0%" stop-color="#FF5722" />
      <stop offset="100%" stop-color="#E64A19" />
    </linearGradient>
    <linearGradient id="brokenBarGradient" x1="0%" y1="0%" x2="100%" y2="100%">
      <stop offset="0%" stop-color="#FF7043" />
      <stop offset="100%" stop-color="#FF5722" />
    </linearGradient>
    <linearGradient id="connectorGradient" x1="0%" y1="0%" x2="100%" y2="0%">
      <stop offset="0%" stop-color="#FF5722" />
      <stop offset="100%" stop-color="#FF7043" />
    </linearGradient>
    <filter id="glow" x="-20%" y="-20%" width="140%" height="140%">
      <feGaussianBlur stdDeviation="3" result="blur" />
      <feComposite in="SourceGraphic" in2="blur" operator="over" />
    </filter>
  </defs>
  
  <!-- Hexagon background instead of rectangle -->
  <polygon 
    points="100,10 170,50 170,150 100,190 30,150 30,50" 
    fill="url(#bgGradient)" 
    stroke="#FF5722" 
    stroke-opacity="0.3"
    stroke-width="1"
  />
  
  <!-- Jail bars with rounded corners - side bars made shorter but centered -->
  <rect x="60" y="60" width="12" height="80" rx="4" ry="4" fill="url(#barGradient)" />
  <rect x="94" y="45" width="12" height="40" rx="4" ry="4" fill="url(#brokenBarGradient)" />
  <rect x="94" y="115" width="12" height="40" rx="4" ry="4" fill="url(#brokenBarGradient)" />
  <rect x="128" y="60" width="12" height="80" rx="4" ry="4" fill="url(#barGradient)" />
  
  <!-- Connection between broken bars - zigzag line -->
  <path d="M100 95 L110 100 L100 105" 
        stroke="url(#connectorGradient)" 
        stroke-width="2.5" 
        fill="none" 
        stroke-linecap="round" 
        stroke-linejoin="round" 
        filter="url(#glow)" />
</svg> 